<?xml version="1.0" standalone="no"?>
<!DOCTYPE svg PUBLIC "-//W3C//DTD SVG 20010904//EN"
    "http://www.w3.org/TR/2001/REC-SVG-20010904/DTD/svg10.dtd">
<svg version="1.0" xmlns="http://www.w3.org/2000/svg"
     width="1000.000000pt" height="1000.000000pt" viewBox="0 0 1000.000000 1000.000000"
     preserveAspectRatio="xMidYMid meet">
    <metadata>
        Created by potrace 1.11, written by Peter Selinger 2001-2013
    </metadata>
    <g transform="translate(0.000000,1000.000000) scale(0.100000,-0.100000)"
       fill="#000000" stroke="none">
        <path d="M1145 8993 c-28 -8 -67 -33 -93 -62 -56 -61 -52 223 -52 -3935 1
-3814 1 -3841 21 -3881 23 -46 60 -81 108 -101 29 -12 579 -14 3885 -12 l3851
3 46 32 c30 21 54 48 68 78 l21 45 -2 3852 -3 3853 -22 36 c-13 20 -42 49 -65
65 l-41 29 -3851 1 c-2118 1 -3860 -1 -3871 -3z"/>
    </g>
</svg>
